<?xml version="1.0" encoding="utf-8"?>
<!-- Generator: Adobe Illustrator 22.1.0, SVG Export Plug-In . SVG Version: 6.00 Build 0)  -->
<svg version="1.1" xmlns="http://www.w3.org/2000/svg" xmlns:xlink="http://www.w3.org/1999/xlink" viewBox="0 0 1024 1024" xml:space="preserve">
	<style>
		path {fill:#1e3e3f}
	</style>
<g>
	<path d="M971.6,610.6c-19.6-42.4-56.6-88.5-90.6-110.9c-31.3-117.3-101.5-236.1-192.6-307.8c-1.6,1.7-3.2,3.3-4.7,4.5
		c-4.6,3.8-10.3,5.8-16,5.8c-3.7,0-7.5-0.8-11-2.6c-0.5-0.2-49.2-23.8-101.3-23.8c-41.6,0-72.2,14.4-93.6,43.9
		c-4.7,6.5-12.3,10.3-20.2,10.3c-0.9,0-1.8,0-2.7-0.1c-8.9-1-16.6-6.6-20.2-14.8c-0.6-1.3-12.5-29.2-14.2-66.3
		c-124.4,56.9-222.8,205.1-261.6,350.9c-34,22.4-71.1,68.5-90.7,111c-30.3,65.4-24,132.7,14,150.3c22.1,10.2,50.1,1.4,75.6-20.6
		C174.6,847,252,934.2,352.3,979.6c1.1-2.6,2.7-5.1,4.7-7.2c4.3-4.4,10.2-6.7,16.2-6.7c2.7,0,5.5,0.5,8.1,1.5
		c27,10.4,55.3,17.5,83.9,21.1c8.9,1.1,16.4,7.5,18.9,16.1c0.8,2.8,1,5.7,0.8,8.6c8.8,0.6,17.7,0.9,26.6,0.9c9.3,0,18.5-0.4,27.6-1
		c-0.3-2.9-0.1-5.8,0.8-8.6c2.5-8.6,9.9-14.9,18.8-16.1c28.6-3.7,56.8-10.8,83.8-21.2c2.2-0.9,4.6-1.5,7.1-1.7c0.5,0,1-0.1,1.6-0.1
		c0.2,0,0.4,0,0.7,0c9.1,0.3,16.9,5.9,20.3,13.9c100-45.6,177.3-132.5,209.9-238.8c25.5,21.9,53.4,30.7,75.5,20.5
		C995.6,743.2,1001.9,676,971.6,610.6z M377.1,467.1c-37.6,0-68.1-30.5-68.1-68.1s30.5-68.1,68.1-68.1s68.1,30.5,68.1,68.1
		S414.7,467.1,377.1,467.1z M585.5,555.8l-69.2,107.4c-3,2.1-8,2.1-11.1,0l-68.1-106.7c-3-2.1-3-5.6,0-7.7l69.2-48.4
		c3-2.1,8-2.1,11.1,0l68.1,47.7C588.5,550.2,588.5,553.7,585.5,555.8z M647.1,467.1c-37.6,0-68.1-30.5-68.1-68.1
		s30.5-68.1,68.1-68.1c37.6,0,68.1,30.5,68.1,68.1S684.7,467.1,647.1,467.1z"/>
	<path d="M425.9,1024.1c13.9,0,26.6-5,36.5-13.3c-31-3.9-60.9-11.6-89.2-22.4C381.5,1009.3,402,1024.1,425.9,1024.1z"/>
	<path d="M598.3,1024.1c24.1,0,44.6-15,52.9-36.2c-28.4,11-58.4,18.7-89.5,22.7C571.6,1019,584.4,1024.1,598.3,1024.1z"/>
	<path d="M378.2,353.7c-25.1,0-45.4,20.3-45.4,45.4c0,25.1,20.3,45.4,45.4,45.4s45.4-20.3,45.4-45.4
		C423.6,374,403.3,353.7,378.2,353.7z M368,392.2c-5,0-9.1-4.1-9.1-9.1c0-5,4.1-9.1,9.1-9.1c5,0,9.1,4.1,9.1,9.1
		C377.1,388.2,373,392.2,368,392.2z M394.1,424c-1.9,0-3.4-1.5-3.4-3.4c0-1.9,1.5-3.4,3.4-3.4s3.4,1.5,3.4,3.4
		C397.5,422.5,396,424,394.1,424z"/>
	<path d="M648.2,353.7c-25.1,0-45.4,20.3-45.4,45.4c0,25.1,20.3,45.4,45.4,45.4s45.4-20.3,45.4-45.4
		C693.6,374,673.3,353.7,648.2,353.7z M638,392.2c-5,0-9.1-4.1-9.1-9.1c0-5,4.1-9.1,9.1-9.1s9.1,4.1,9.1,9.1
		C647.1,388.2,643,392.2,638,392.2z M664.1,424c-1.9,0-3.4-1.5-3.4-3.4c0-1.9,1.5-3.4,3.4-3.4c1.9,0,3.4,1.5,3.4,3.4
		C667.5,422.5,666,424,664.1,424z"/>
	<path d="M429.6,148.5c0.5,10.4,2,20,3.7,28.2c3.6,17.3,8.4,28.4,8.4,28.4c0,0,0,0,0,0c1.1-1.5,2.1-2.9,3.2-4.3
		c0.4-0.4,0.7-0.9,1.1-1.3c0.8-1,1.5-1.9,2.3-2.8c0.4-0.5,0.8-1,1.2-1.4c0.8-0.9,1.5-1.7,2.3-2.6c0.4-0.4,0.8-0.9,1.2-1.3
		c0.9-1,1.9-2,2.8-2.9c0.2-0.2,0.5-0.5,0.7-0.7c1.2-1.2,2.4-2.3,3.6-3.4c0.3-0.3,0.6-0.6,1-0.8c0.9-0.8,1.8-1.6,2.8-2.4
		c0.4-0.4,0.9-0.7,1.3-1.1c0.9-0.7,1.7-1.4,2.6-2c0.4-0.3,0.9-0.7,1.3-1c0.9-0.7,1.9-1.4,2.8-2.1c0.3-0.2,0.7-0.5,1-0.7
		c1.3-0.9,2.6-1.8,3.9-2.6c0.2-0.1,0.4-0.2,0.6-0.3c1.1-0.7,2.3-1.4,3.4-2.1c0.4-0.2,0.9-0.5,1.3-0.7c0.9-0.5,1.9-1,2.8-1.5
		c0.5-0.2,0.9-0.5,1.4-0.7c1-0.5,1.9-1,2.9-1.4c0.4-0.2,0.8-0.4,1.2-0.6c1.3-0.6,2.6-1.2,4-1.8c0.1,0,0.1,0,0.2-0.1
		c1.4-0.6,2.8-1.2,4.2-1.7c0.4-0.2,0.8-0.3,1.2-0.4c1-0.4,2-0.7,3-1.1c0.5-0.2,1-0.3,1.4-0.5c1-0.3,2-0.6,2.9-0.9
		c0.5-0.1,0.9-0.3,1.4-0.4c1.1-0.3,2.3-0.7,3.4-1c0.3-0.1,0.6-0.2,0.9-0.2c1.4-0.4,2.9-0.7,4.3-1.1c0.3-0.1,0.7-0.1,1-0.2
		c1.1-0.2,2.2-0.5,3.3-0.7c0.5-0.1,1-0.2,1.5-0.3c1-0.2,2-0.4,3-0.5c0.5-0.1,1-0.2,1.5-0.2c1-0.2,2.1-0.3,3.1-0.5
		c0.4-0.1,0.8-0.1,1.2-0.2c1.4-0.2,2.9-0.4,4.3-0.5c0.2,0,0.3,0,0.5,0c1.3-0.1,2.6-0.2,3.8-0.3c0.5,0,0.9-0.1,1.4-0.1
		c1-0.1,2-0.1,3-0.2c0.5,0,1-0.1,1.5-0.1c1,0,2-0.1,3-0.1c0.5,0,0.9,0,1.4,0c1.3,0,2.5,0,3.8,0c0.2,0,0.3,0,0.5,0c0,0,0.1,0,0.1,0
		c0.2,0,0.4,0,0.6,0c1.5,0,3,0,4.4,0.1c0.6,0,1.2,0,1.7,0.1c1.1,0,2.3,0.1,3.4,0.1c0.6,0,1.3,0.1,1.9,0.1c1.1,0.1,2.1,0.1,3.2,0.2
		c0.6,0,1.3,0.1,1.9,0.1c1.1,0.1,2.2,0.2,3.3,0.3c0.6,0.1,1.1,0.1,1.7,0.2c1.4,0.1,2.9,0.3,4.3,0.5c0.2,0,0.4,0,0.6,0.1
		c1.6,0.2,3.3,0.4,4.9,0.7c0.5,0.1,0.9,0.1,1.4,0.2c1.1,0.2,2.3,0.3,3.4,0.5c0.6,0.1,1.2,0.2,1.7,0.3c1,0.2,2,0.3,3,0.5
		c0.6,0.1,1.2,0.2,1.7,0.3c1,0.2,2,0.4,3,0.6c0.5,0.1,1.1,0.2,1.6,0.3c1.2,0.2,2.3,0.5,3.4,0.7c0.3,0.1,0.7,0.1,1,0.2
		c1.5,0.3,2.9,0.7,4.4,1c0.3,0.1,0.6,0.1,0.9,0.2c1.1,0.3,2.3,0.6,3.4,0.8c0.5,0.1,0.9,0.2,1.4,0.4c0.9,0.2,1.8,0.5,2.8,0.7
		c0.5,0.1,1,0.3,1.5,0.4c0.9,0.2,1.8,0.5,2.6,0.7c0.5,0.1,0.9,0.3,1.4,0.4c0.9,0.3,1.9,0.5,2.8,0.8c0.4,0.1,0.7,0.2,1.1,0.3
		c1.3,0.4,2.5,0.8,3.7,1.2c0,0,0.1,0,0.1,0c1.2,0.4,2.3,0.7,3.4,1.1c0.4,0.1,0.7,0.2,1,0.3c0.8,0.3,1.6,0.5,2.4,0.8
		c0.4,0.1,0.8,0.3,1.2,0.4c0.7,0.2,1.4,0.5,2.1,0.7c0.4,0.1,0.8,0.3,1.1,0.4c0.7,0.3,1.4,0.5,2.1,0.8c0.3,0.1,0.6,0.2,0.9,0.3
		c0.8,0.3,1.7,0.6,2.5,0.9c0.1,0,0.2,0.1,0.3,0.1c0.9,0.4,1.8,0.7,2.6,1c0.2,0.1,0.4,0.2,0.7,0.3c0.6,0.2,1.2,0.5,1.8,0.7
		c0.3,0.1,0.5,0.2,0.8,0.3c0.5,0.2,1,0.4,1.5,0.6c0.2,0.1,0.5,0.2,0.7,0.3c0.5,0.2,0.9,0.4,1.3,0.6c0.2,0.1,0.4,0.2,0.6,0.3
		c0.5,0.2,0.9,0.4,1.3,0.6c0.1,0.1,0.3,0.1,0.4,0.2c0.5,0.2,1,0.5,1.5,0.7c0.1,0,0.2,0.1,0.2,0.1c0.4,0.2,0.7,0.3,1,0.5
		c0.1,0.1,0.2,0.1,0.3,0.2c0.2,0.1,0.5,0.2,0.7,0.3c0.1,0.1,0.2,0.1,0.3,0.1c0.2,0.1,0.3,0.1,0.4,0.2c0.1,0,0.2,0.1,0.2,0.1
		c0.1,0.1,0.2,0.1,0.3,0.1c0,0,0.1,0,0.1,0c0.1,0,0.1,0.1,0.1,0.1s0.1-0.1,0.4-0.3c2.8-2.6,21.5-21,12.5-52.3
		c-0.4-1.4-0.8-2.7-1.3-4c-0.1-0.3-0.2-0.6-0.3-0.8c-0.5-1.2-0.9-2.4-1.4-3.6c-0.1-0.2-0.2-0.3-0.2-0.5c-0.5-1-1-2-1.5-3
		c-0.1-0.2-0.2-0.4-0.3-0.6c-0.6-1-1.1-2-1.8-3c-0.1-0.2-0.3-0.4-0.4-0.6c-0.6-0.9-1.1-1.7-1.7-2.5c-0.1-0.1-0.2-0.2-0.3-0.3
		c-0.7-0.9-1.3-1.7-2-2.5c-0.2-0.2-0.3-0.4-0.5-0.5c-0.7-0.8-1.4-1.5-2.2-2.2c0,0,0,0,0,0c-0.7-0.7-1.5-1.3-2.2-2
		c-0.2-0.1-0.3-0.3-0.5-0.4c-0.8-0.6-1.5-1.2-2.3-1.7c-0.1-0.1-0.2-0.2-0.4-0.2c-0.7-0.5-1.4-0.9-2.2-1.4c-0.2-0.1-0.3-0.2-0.5-0.3
		c-0.8-0.5-1.6-0.9-2.4-1.3c-0.2-0.1-0.3-0.2-0.5-0.2c-0.8-0.4-1.5-0.7-2.3-1c-0.1,0-0.2-0.1-0.3-0.1c-0.8-0.3-1.7-0.7-2.5-1
		c-0.2-0.1-0.4-0.1-0.6-0.2c-0.8-0.3-1.7-0.6-2.5-0.8c0,0-0.1,0-0.1,0c-0.8-0.2-1.6-0.4-2.4-0.6c-0.2,0-0.4-0.1-0.5-0.1
		c-0.8-0.2-1.6-0.3-2.5-0.5c-0.1,0-0.3,0-0.4-0.1c-0.7-0.1-1.5-0.2-2.2-0.3c-0.2,0-0.3,0-0.5-0.1c-0.8-0.1-1.6-0.2-2.4-0.3
		c-0.2,0-0.3,0-0.5,0c-0.7-0.1-1.4-0.1-2.1-0.1c-0.1,0-0.2,0-0.3,0c-0.8,0-1.5-0.1-2.2-0.1c-0.2,0-0.3,0-0.5,0c-0.7,0-1.3,0-1.9,0
		c-0.1,0-0.2,0-0.3,0c-0.7,0-1.4,0-2.1,0.1c-0.2,0-0.4,0-0.5,0c-0.5,0-1,0.1-1.5,0.1c-0.2,0-0.4,0-0.5,0c-0.6,0.1-1.2,0.1-1.8,0.2
		c0,0-0.1,0-0.1,0c-0.5,0.1-1.1,0.1-1.6,0.2c-0.2,0-0.3,0-0.5,0.1c-0.4,0.1-0.8,0.1-1.2,0.2c-0.1,0-0.2,0-0.3,0.1
		c-0.5,0.1-0.9,0.1-1.3,0.2c-0.1,0-0.2,0-0.3,0c-0.3,0.1-0.6,0.1-0.9,0.2c-0.1,0-0.2,0-0.3,0.1c-0.3,0.1-0.5,0.1-0.7,0.2
		c0,0-0.1,0-0.1,0c-0.3,0.1-0.5,0.1-0.7,0.1c-0.1,0-0.1,0-0.1,0c-0.1,0-0.2,0.1-0.3,0.1c0,0-0.1,0-0.1,0c-0.1,0-0.1,0-0.1,0h0
		c0,0,5-8.3,8.6-19.7c0.4-1.4,0.9-2.9,1.3-4.4c0.4-1.5,0.7-3.1,1.1-4.7c0.3-1.6,0.6-3.2,0.8-4.8c1-8.2,0.5-16.8-3.2-24.6
		c-0.5-1-1-2-1.5-3c-0.2-0.3-0.4-0.6-0.5-0.9c-0.4-0.7-0.8-1.4-1.3-2c-0.2-0.3-0.4-0.6-0.6-0.9c-0.5-0.7-1-1.4-1.6-2.1
		c-0.2-0.2-0.3-0.4-0.5-0.7c-0.7-0.9-1.5-1.8-2.4-2.6c-0.2-0.2-0.4-0.4-0.6-0.6c-0.7-0.7-1.3-1.3-2-1.9c-0.3-0.3-0.6-0.5-0.9-0.8
		c-0.7-0.6-1.3-1.1-2-1.7c-0.3-0.2-0.6-0.5-0.9-0.7c-1-0.7-1.9-1.4-2.9-2.1c-0.1,0-0.1-0.1-0.2-0.1c-1.1-0.7-2.2-1.4-3.3-2
		c-0.4-0.2-0.7-0.4-1.1-0.6c-0.8-0.4-1.7-0.9-2.5-1.3c-0.4-0.2-0.8-0.4-1.2-0.6c-0.9-0.4-1.9-0.8-2.8-1.2c-0.3-0.1-0.7-0.3-1-0.4
		c-1.3-0.5-2.6-1-4-1.4c-0.3-0.1-0.6-0.2-0.9-0.3c-1.1-0.3-2.2-0.6-3.3-0.9c-0.5-0.1-1-0.2-1.4-0.3c-1-0.2-2-0.5-3.1-0.7
		c-0.5-0.1-0.9-0.2-1.4-0.3c-1.4-0.2-2.7-0.5-4.2-0.6c-0.1,0-0.3,0-0.4-0.1c-1.5-0.2-3.1-0.3-4.7-0.4c-0.5,0-1,0-1.4-0.1
		c-1.2-0.1-2.3-0.1-3.5-0.1c-0.7,0-1.5,0-2.2,0c-0.4,0-0.7,0-1.1,0c-1.3,0-2.6,0.1-3.9,0.2c-0.1,0-0.2,0-0.3,0
		c-1.2,0.1-2.4,0.2-3.7,0.3c-0.4,0-0.8,0.1-1.1,0.1c-1.1,0.1-2.2,0.3-3.3,0.4c-0.3,0-0.6,0.1-0.8,0.1c-1.4,0.2-2.7,0.5-4.1,0.7
		c-0.3,0.1-0.7,0.1-1,0.2c-1.1,0.2-2.2,0.5-3.3,0.7c-0.4,0.1-0.8,0.2-1.2,0.3c-1.4,0.4-2.8,0.7-4.3,1.2c-0.1,0-0.1,0-0.2,0.1
		c-1.4,0.4-2.7,0.8-4.1,1.3c-0.4,0.1-0.8,0.3-1.2,0.4c-1.2,0.4-2.3,0.8-3.5,1.3c-0.3,0.1-0.7,0.2-1,0.4c-1.5,0.6-2.9,1.2-4.4,1.8
		c-0.3,0.1-0.7,0.3-1,0.5c-1.2,0.5-2.4,1.1-3.6,1.6c-0.4,0.2-0.9,0.4-1.3,0.6c-1.5,0.7-3,1.5-4.5,2.3c-7.6,4-14.5,8.3-20.8,12.8
		C479.9,33,473,38.9,467,45c-1.2,1.2-2.4,2.5-3.5,3.7c-4.5,5-8.5,10-11.9,15.2c-12.1,18-18.3,37.1-20.8,55.1
		c-0.9,6.8-1.4,13.4-1.4,19.8c0,2.1,0,4.1,0.1,6.2C429.5,146.2,429.5,147.4,429.6,148.5z"/>
</g>
</svg>
