<?xml version="1.0" encoding="utf-8"?>
<!-- Generator: Adobe Illustrator 22.1.0, SVG Export Plug-In . SVG Version: 6.00 Build 0)  -->
<svg version="1.1" id="图层_1" xmlns="http://www.w3.org/2000/svg" xmlns:xlink="http://www.w3.org/1999/xlink" x="0px" y="0px"
	 viewBox="0 0 1024 1024" style="enable-background:new 0 0 1024 1024;" xml:space="preserve">
<style type="text/css">
	.st0{fill:#1E3E3F;}
	.st1{fill:#127EA9;}
</style>
<path class="st0" d="M891.4,730.8c-8.9,0.9-25.7,0-43.5-5.3c-12.4-4.4-24.9-10.7-34.6-18.6c-22.2-17.8-38.2-43.5-42.6-72.8
	c0-1.8-2.7-1.8-3.6,0c-6.2,17.8-16,33.7-28.4,47.9c-7.1,8.9-16,16-24.9,23.1l0,0c-2.7,1.8-5.3,3.6-8.9,3.6c-8,0-14.2-6.2-14.2-14.2
	c0-2.7,0.9-5.3,1.8-7.1l0,0c13.3-21.3,24-45.3,32-69.2c10.7-32.8,16.9-68.3,16.9-104.7c0-10.7-0.9-21.3-1.8-32
	c0-3.6-0.9-7.1-0.9-10.7c-4.4-38.2-16-73.7-32-106.5c19.5-28.4,34.6-59.5,43.5-93.2c-39.1-18.6-82.5-28.4-128.7-28.4
	c-6.2,0-11.5,0-16.9,0c-43.5-32-95-54.1-150.9-63c-16-2.7-32.8-3.6-49.7-3.6c-47.9,0-95,4.4-138.5,13.3
	c-23.1,4.4-46.2,10.7-68.3,16.9c-24.9,8-49.7,16.9-71.9,27.5c-11.5,5.3-22.2,10.7-33.7,16.9C81,256.8,73.9,267.5,73,279.9
	c-1.8,27.5-2.7,55.9-3.6,84.3c0,2.7,0,4.4,0.9,7.1l11.5,59.5c0,0.9,1.8,1.8,2.7,0l15.1-55c0-0.9,2.7-0.9,2.7,0l8,55
	c0,0.9,1.8,1.8,2.7,0l18.6-47.9c0.9-0.9,2.7-0.9,2.7,0l0.9,48.8c0,0.9,1.8,1.8,2.7,0.9l19.5-38.2c0.9-0.9,2.7-0.9,2.7,0.9l-1.8,40.8
	c0,0.9,1.8,1.8,2.7,0.9l19.5-27.5c0.9-0.9,2.7-0.9,2.7,0.9c0,8-0.9,24-1.8,31.1c0,0.9,0.9,1.8,1.8,0.9l16-16c0.9-0.9,1.8,0,1.8,0.9
	l0.9,24c2.7,0.9,5.3,1.8,8.9,2.7c-2.7-0.9-6.2-1.8-8.9-2.7c-7.1-1.8-15.1-3.6-22.2-5.3l0,0c-19.5-3.6-39.1-6.2-59.5-6.2
	c-4.4,0-8,0-12.4,0c-6.2,0-19.5,1.8-29.3,2.7c-5.3,0.9-9.8,5.3-9.8,10.7c0,1.8,0,2.7,0,3.6c0,18.6,0,37.3,0,55.9
	c0,41.7,8,82.5,22.2,119.8c2.7,6.2,3.6,14.2,1.8,20.4c-1.8,8-4.4,16-7.1,24c-3.6,11.5-8,22.2-12.4,33.7c-2.7,6.2-5.3,12.4-8,17.8
	c-2.7,5.3,0,10.7,5.3,12.4c0.9,0,2.7,0.9,3.6,0.9c27.5,7.1,55.9,11.5,85.2,13.3c8,0.9,16,3.6,22.2,8.9c16.9,15.1,35.5,28.4,55,39.9
	c9.8,5.3,19.5,10.7,29.3,15.1c18.6,8.9,39.1,16,59.5,20.4s40.8,8,62.1,8.9l0,0c5.3,0,9.8,0,15.1,0c0.9,0,1.8,0,2.7,0
	c79,0,150.9-26.6,208.6-71.9c0.9,0,35.5-32,60.4-28.4c13.3,11.5,28.4,20.4,44.4,26.6c0.9,0,0.9,0.9,1.8,0.9c4.4,1.8,8,2.7,12.4,4.4
	c4.4,0.9,8.9,2.7,13.3,3.6c9.8,1.8,20.4,2.7,31.1,2.7c46.2,0,87.9-19.5,117.2-50.6C894.9,733.5,894,730.8,891.4,730.8z M587.8,778.7
	c-51.5,35.5-114.5,56.8-182,56.8c-0.9,0-0.9,0-1.8,0c-4.4,0-8.9,0-13.3,0c-21.3-0.9-40.8-3.6-61.2-8c-18.6-4.4-37.3-10.7-55-17.8
	c-9.8-4.4-18.6-8.9-27.5-13.3c-20.4-11.5-39.9-24.9-57.7-40.8c-27.5-24-50.6-52.4-68.3-84.3c-9.8-16.9-17.8-35.5-24-54.1
	c-11.5-32.8-17.8-68.3-17.8-104.7c0-17.8,1.8-35.5,4.4-52.4c0.9-3.6,3.6-5.3,6.2-6.2c8.9-0.9,17.8-0.9,26.6-0.9
	c14.2,0,27.5,0.9,41.7,2.7c22.2,3.6,43.5,8.9,63,16.9c7.1,2.7,13.3-2.7,12.4-9.8v-0.9c-14.2-41.7-44.4-75.4-84.3-94.1
	c-4.4-1.8-8.9-4.4-14.2-6.2c-5.3-1.8-10.7-3.6-16-5.3c-4.4-0.9-8.9-1.8-13.3-2.7c-3.6-0.9-6.2-0.9-9.8-0.9
	c-7.1-0.9-12.4-6.2-11.5-13.3l2.7-55c0-8,7.1-13.3,15.1-12.4c18.6,2.7,37.3,6.2,55,11.5c1.8,0.9,4.4,0.9,6.2,1.8
	c2.7,0.9,5.3,1.8,8,2.7c0.9,0,2.7,0.9,3.6,0.9c10.7,3.6,20.4,8,30.2,12.4c7.1,3.6,16,3.6,23.1-0.9c7.1-3.6,15.1-7.1,22.2-10.7
	c18.6-7.1,39.1-10.7,60.4-10.7c4.4,0,8.9,0,14.2,0.9c4.4,0,8,0.9,11.5,1.8c0.9,0,0.9,0,0.9,0.9v0.9c-4.4,11.5-13.3,21.3-21.3,30.2
	c-7.1,8-15.1,16-24,22.2c-7.1,5.3-7.1,16-0.9,22.2c14.2,12.4,26.6,25.7,37.3,39.9c36.4,47,56.8,103,56.8,163.3c0,5.3,0,10.7,0,16
	c0,6.2-0.9,13.3-1.8,19.5c-0.9,8-1.8,16.9-3.6,24.9c0,1.8-0.9,4.4-0.9,6.2c-3.6,18.6-8.9,37.3-16,55c-1.8,4.4,0.9,9.8,5.3,11.5
	c1.8,0.9,2.7,0.9,4.4,1.8c7.1,2.7,15.1,5.3,22.2,7.1c3.6,0.9,6.2,1.8,9.8,2.7c4.4,0.9,9.8,2.7,15.1,3.6c13.3,2.7,27.5,4.4,40.8,6.2
	c37.3,27.5,79.9,47.9,126,58.6C589.6,772.5,590.5,776.9,587.8,778.7z"/>
<path class="st0" d="M313.6,293.2c-3.6,0-7.1-0.9-10.7-0.9c-13.3,0-26.6,2.7-38.2,6.2c-7.1,2.7-14.2,5.3-21.3,8.9
	c-4.4,2.7-4.4,8.9,0,11.5c6.2,3.6,11.5,7.1,17.8,11.5c1.8,0.9,4.4,1.8,6.2,0.9c7.1-3.6,13.3-7.1,19.5-11.5
	C296.7,312.7,305.6,303.9,313.6,293.2z"/>
<path class="st1" d="M938.4,634c23.1-33.7,9.8-42.6,0-44.4c-9.8-2.7-35.5-2.7-38.2,38.2c-1.8,32.8-9.8,37.3-13.3,37.3
	C893.2,664.2,919.8,661.6,938.4,634z"/>
<path class="st1" d="M959.7,700.6c-4.4-9.8-25.7,2.7-38.2,9.8c-7.1,4.4-24,9.8-24,9.8C945.5,726.4,962.4,714.8,959.7,700.6z"/>
</svg>
