<?xml version="1.0" encoding="utf-8"?>
<!-- Generator: Adobe Illustrator 22.1.0, SVG Export Plug-In . SVG Version: 6.00 Build 0)  -->
<svg version="1.1" id="图层_1" xmlns="http://www.w3.org/2000/svg" xmlns:xlink="http://www.w3.org/1999/xlink" x="0px" y="0px"
	 viewBox="0 0 1024 1024" style="enable-background:new 0 0 1024 1024;" xml:space="preserve">
<style type="text/css">
	.st0{fill:#F0EFED;}
	.st1{fill:#BBB7B7;}
	.st2{fill:#5C6B72;}
	.st3{fill:#1E3E3F;}
	.st4{fill:#FFFFFF;}
	.st5{fill:#2D2D2D;}
	.st6{fill:#127EA9;}
	.st7{fill:#BAB8B8;}
</style>
<path class="st0" d="M462.1,706.2c-46.3-7-99.6-16.2-99.6-16.2L396,589.1c0,0-1.2-33.6,0-67.2c1-28.6,20.9-129.8-83.4-194.7
	c30.1-27.8,32.4-37.1,30.1-41.7s-25.5-34.8-111.2,7c-99.6-23.2-156.4-24.3-156.4-24.3s-5.7,35.9-8.5,88.8
	c88.8,14.7,135.9,38.6,161.4,115.1c-4.5-3.8-9.1-7.3-14.2-10.5l0.3,1.3c0,0-54.5-22.7-147.7-16.4c-0.3,0-0.5,0.1-0.8,0.1
	c2.2,63.6,11.1,134.4,34.9,194.7c-27.8,88.1-30.1,95-30.1,95l97.3,13.9c0,0,90.4,88.1,243.3,88.1c123.7,0,182.6-57.6,200.6-79.6
	c-2,1.7-4,3.5-6,5.5C550.1,757.2,492.2,736.3,462.1,706.2z M300.7,306.1c-0.2,0.2-0.5,0.3-0.8,0.3s-0.6-0.1-0.8-0.3
	c-4.1-4.1-6.3-4.3-23.6-6.2l-3.5-0.4c-0.5-0.1-0.8-0.4-1-0.8c-0.1-0.4,0-0.9,0.3-1.2c21.2-18.8,47.3-7.3,47.6-7.1
	c0.6,0.3,0.8,1,0.6,1.5c-0.3,0.6-1,0.8-1.5,0.6c-0.2-0.1-23.4-10.3-43,5l0.8,0.1c17.7,1.9,20.4,2.2,25,6.9
	C301.1,304.9,301.1,305.6,300.7,306.1z"/>
<path class="st1" d="M65.1,446.5v0.1c0.2,0,0.4-0.1,0.6-0.1c0,0,0,0,0-0.1C65.5,446.5,65.3,446.5,65.1,446.5z"/>
<path class="st1" d="M65.7,446.5L65.7,446.5c0.3,0,0.5,0,0.8-0.1C66.2,446.5,65.9,446.5,65.7,446.5z"/>
<path class="st2" d="M65.5,441.6l30.4-76.1l18.5,71.8l27.8-57.9l16.2,60.3l18.5-39.4l13.9,46.3l16.2-18.5l6.7,33.5
	c5,3.2,9.7,6.7,14.2,10.5C202.5,395.7,155.4,371.7,66.6,357C65.3,382.1,64.6,410.9,65.5,441.6z"/>
<path class="st3" d="M761,639c-7,16.2-16.2,39.4-44,62.6c-27.8,23.2-48.7,2.3-41.7-16.2c95-164.5,25.5-305.9,9.3-329.1
	c9.3-11.6,32.4-48.7,37.1-76.5c-37.1-25.5-129.8-32.4-129.8-32.4s-41.7-34.8-118.2-53.3c-185.4-39.4-398.6,74.2-398.6,74.2
	s56.8,1.2,156.4,24.3c85.7-41.7,108.9-11.6,111.2-7c2.3,4.6,0,13.9-30.1,41.7C416.9,392.2,397,493.3,396,522
	c-1.2,33.6,0,67.2,0,67.2L362.4,690c0,0,53.3,9.3,99.6,16.2c30.1,30.1,88.1,51,143.7,57.9c2-2,4-3.8,6-5.5
	c30.3-25.6,58.9-15.4,58.9-15.4s43.5,32.4,90.4,32.4c48.7,0,81.1-9.3,113.5-51C800.4,750.2,774.9,687.6,761,639z"/>
<path class="st4" d="M63.5,446.6c0.5,0,1.1-0.1,1.6-0.1c-0.2-0.8-0.4-1.6-0.5-2.5L63.5,446.6z"/>
<path class="st4" d="M65.5,441.6l-1,2.4c0.2,0.9,0.3,1.8,0.5,2.5c0.2,0,0.4,0,0.6,0C65.6,444.9,65.5,443.2,65.5,441.6z"/>
<path class="st4" d="M213.9,461.6l-6.7-33.5L191,446.6l-14-46.3l-18.5,39.4l-16.2-60.3l-27.8,57.9L96,365.5l-30.4,76.1
	c0,1.6,0.1,3.3,0.2,4.9c0.3,0,0.5,0,0.8-0.1c93.2-6.3,147.7,16.4,147.7,16.4L213.9,461.6z"/>
<path class="st5" d="M275.6,297.6l-0.8-0.1c19.6-15.4,42.8-5.2,43-5c0.6,0.3,1.3,0,1.5-0.6c0.3-0.6,0-1.3-0.6-1.5
	c-0.3-0.1-26.4-11.7-47.6,7.1c-0.3,0.3-0.5,0.8-0.3,1.2c0.1,0.4,0.5,0.8,1,0.8l3.5,0.4c17.3,1.9,19.6,2.2,23.6,6.2
	c0.2,0.2,0.5,0.3,0.8,0.3s0.6-0.1,0.8-0.3c0.5-0.5,0.5-1.2,0-1.6C296,299.8,293.3,299.5,275.6,297.6z"/>
<path class="st6" d="M939.4,678.4c23-33.3,9.3-41.7,0-44s-34.8-2.3-37.1,37.1c-1.9,32.1-9.9,36.5-12.8,37
	C895,708.1,920.9,705.2,939.4,678.4z"/>
<path class="st7" d="M888.5,708.5c0,0,0.4,0.1,1.1,0C888.8,708.5,888.5,708.5,888.5,708.5z"/>
<path class="st6" d="M923.2,752.5c-7,4.6-23.2,9.3-23.2,9.3c46.3,7,62.6-4.6,60.3-18.5C955.7,734,934.8,745.6,923.2,752.5z"/>
</svg>
